# xmcd CD database file
#
# Track frame offsets:
#	150
#	23129
#	54224
#	77688
#	101072
#	119889
#	151617
#	169599
#
# Disc length: 2653 seconds
#
# Revision: 0
# Processed by: cddbd v1.5.1PL2 Copyright (c) Steve Scherf et al.
# Submitted via: CDex 1.51
#
DISCID=570a5b08
DTITLE=Junior Toledo Y Su Orquesta - Cuando Vivas Conmigo
DYEAR=1982
DGENRE=Salsa
TTITLE0=La Chica Del Otro Lado 
TTITLE1=Suficiente De Ti
TTITLE2=Vivo En Tu Mente
TTITLE3=Niña Y Señora
TTITLE4=Medley La Tombola/Margie
TTITLE5=Cuando Vivas Conmigo
TTITLE6=Medley De Boleros: Fiesta De Besos - Cosas Del Alma
TTITLE7=Indiana
EXTD=YEAR: 1982
EXTT0=
EXTT1=
EXTT2=
EXTT3=
EXTT4=
EXTT5=
EXTT6=
EXTT7=
PLAYORDER=
